<svg width="512" height="512" viewBox="0 0 512 512" fill="none" xmlns="http://www.w3.org/2000/svg">
  <path
    d="M236.5 0.599396C225.8 1.49939 204 5.09943 193 7.89941C175.8 12.2994 159.5 18.3994 142.1 27.0994C91.8999 51.8994 51.9999 91.8994 27.0999 142.099C-1.50014 199.599 -7.50014 262.399 9.49986 324.499C28.4999 393.899 78.0999 453.499 143.5 485.499C161.7 494.399 174 498.999 191.4 503.499C245.7 517.299 299.6 513.999 350.5 493.799C409.5 470.299 457.4 425.899 485.6 368.499C498.4 342.399 506.3 316.199 510.2 286.999C512.1 272.599 511.8 235.099 509.6 220.999C505 190.299 497.2 165.999 483.4 138.799C458.8 90.3994 418.4 50.8994 368.5 26.3994C342.7 13.7994 315.8 5.59943 288 1.99942C279.1 0.799408 245.1 -0.100616 236.5 0.599396ZM277 23.0994C304.6 25.5994 333.9 33.7994 358.5 45.8994C383.8 58.3994 400.3 70.1994 421 90.9994C441.8 111.799 453.7 128.299 466 153.499C497.7 218.399 497.8 294.099 466.1 358.499C453.6 383.799 441.8 400.299 421 420.999C400.2 441.799 383.7 453.699 358.5 465.999C293.6 497.699 218.3 497.799 153.5 466.099C83.8999 431.999 36.1999 366.699 24.2999 288.999C21.8999 272.799 21.8999 239.899 24.3999 223.499C32.2999 171.599 54.2999 127.699 90.9999 90.9994C110.7 71.2994 129.9 57.4994 153.5 45.9994C192.7 27.0994 235 19.1994 277 23.0994Z"
    fill="currentColor" />
  <path
    d="M190.2 237.2C190.5 318.4 190.5 319.6 192.7 325.3C196.8 336.6 205.7 346.8 216.3 352.1C224.8 356.5 231 357 277.8 357H322V346V331.1L275.8 330.8L233.5 330.5C228 329.5 221 325.5 219.4 321.5C215.5 307 216 319.3 216 233.8V155H201H189.9L190.2 237.2Z"
    fill="currentColor" />
</svg>